<svg xmlns="http://www.w3.org/2000/svg" xmlns:xlink="http://www.w3.org/1999/xlink" viewBox="0 0 512 512"><defs><style>.cls-1{isolation:isolate;}.cls-2{fill:#17223b;}.cls-3{fill:url(#Безымянный_градиент_46);}.cls-4{fill-rule:evenodd;opacity:0.92;fill:url(#radial-gradient);}.cls-4,.cls-6{mix-blend-mode:screen;}.cls-5{fill:#fff;}.cls-6{fill:url(#radial-gradient-2);}</style><radialGradient id="Безымянный_градиент_46" cx="232.32" cy="216.83" r="209.29" gradientUnits="userSpaceOnUse"><stop offset="0.01" stop-color="#ce8900"/><stop offset="0.24" stop-color="#ce8700"/><stop offset="0.35" stop-color="#ce7f00"/><stop offset="0.44" stop-color="#cd7200"/><stop offset="0.52" stop-color="#cc5f00"/><stop offset="0.59" stop-color="#cc4700"/><stop offset="0.65" stop-color="#ca2900"/><stop offset="0.71" stop-color="#c90600"/><stop offset="0.72" stop-color="#c90000"/><stop offset="0.74" stop-color="#c60507"/><stop offset="0.78" stop-color="#bd141a"/><stop offset="0.82" stop-color="#ae2b3a"/><stop offset="0.86" stop-color="#9a4d66"/><stop offset="0.91" stop-color="#80779e"/><stop offset="0.96" stop-color="#61aae2"/><stop offset="0.98" stop-color="#54c0ff"/></radialGradient><radialGradient id="radial-gradient" cx="487.95" cy="221.97" r="94.42" gradientTransform="translate(-459.37 -82.3) scale(1.47 1.47)" gradientUnits="userSpaceOnUse"><stop offset="0.89"/><stop offset="0.9" stop-color="#000506"/><stop offset="0.92" stop-color="#001217"/><stop offset="0.94" stop-color="#002932"/><stop offset="0.96" stop-color="#004858"/><stop offset="0.99" stop-color="#006f89"/><stop offset="1" stop-color="#008bab"/></radialGradient><radialGradient id="radial-gradient-2" cx="232.42" cy="1307.6" r="253.37" gradientTransform="translate(25.28 -140.58) scale(1 0.3)" gradientUnits="userSpaceOnUse"><stop offset="0.01" stop-opacity="0"/><stop offset="0.68" stop-color="#03050b" stop-opacity="0.13"/><stop offset="0.78" stop-color="#0c1026" stop-opacity="0.44"/><stop offset="0.93" stop-color="#171f49" stop-opacity="0.84"/><stop offset="1" stop-color="#1b2557"/></radialGradient></defs><g class="cls-1"><g id="Слой_1" data-name="Слой 1"><rect class="cls-2" width="512" height="512"/><circle class="cls-3" cx="257.02" cy="243.59" r="138.62"/><path class="cls-4" d="M395.64,243.61A138.48,138.48,0,0,1,257,382.21,143.3,143.3,0,0,1,238.84,381a134.56,134.56,0,0,1-16.12-3.1,138.48,138.48,0,0,1-101.33-105.6.18.18,0,0,1,0-.12,139.82,139.82,0,0,1-3-28.61A138.62,138.62,0,0,1,257,105c3,0,6,.08,9,.29a138.22,138.22,0,0,1,44.62,10.47c2.43,1,4.8,2.11,7.17,3.25a137.2,137.2,0,0,1,27.94,18.14c2.87,2.37,5.65,4.89,8.31,7.49,1,.94,1.9,1.9,2.84,2.87A138.08,138.08,0,0,1,395.64,243.61Z"/><ellipse class="cls-5" cx="185.75" cy="174.14" rx="24.79" ry="7.12" transform="matrix(0.54, -0.84, 0.84, 0.54, -61.41, 235.28)"/><ellipse class="cls-6" cx="257.02" cy="259.24" rx="246.54" ry="51.79"/></g></g></svg>