<svg xmlns="http://www.w3.org/2000/svg" xmlns:xlink="http://www.w3.org/1999/xlink" viewBox="0 0 512 512"><defs><style>.cls-1{isolation:isolate;}.cls-2{fill:#17223b;}.cls-3{fill:url(#Безымянный_градиент_7);}.cls-4{fill-rule:evenodd;opacity:0.92;mix-blend-mode:screen;fill:url(#radial-gradient);}.cls-5{fill:#fff;}</style><radialGradient id="Безымянный_градиент_7" cx="238.04" cy="217.97" r="130.1" gradientUnits="userSpaceOnUse"><stop offset="0.01" stop-color="#009991"/><stop offset="0.28" stop-color="#009791"/><stop offset="0.41" stop-color="#008f91"/><stop offset="0.52" stop-color="#008292"/><stop offset="0.61" stop-color="#006f93"/><stop offset="0.69" stop-color="#005794"/><stop offset="0.72" stop-color="#004d94"/><stop offset="0.74" stop-color="#074d97"/><stop offset="0.78" stop-color="#1a4ea0"/><stop offset="0.83" stop-color="#3a4fae"/><stop offset="0.88" stop-color="#6650c1"/><stop offset="0.93" stop-color="#9e52da"/><stop offset="0.99" stop-color="#e254f8"/><stop offset="1" stop-color="#f154ff"/></radialGradient><radialGradient id="radial-gradient" cx="318.87" cy="249.51" r="94.42" gradientTransform="translate(-42.92 7.23) scale(0.95 0.95)" gradientUnits="userSpaceOnUse"><stop offset="0.89"/><stop offset="0.9" stop-color="#000506"/><stop offset="0.92" stop-color="#001217"/><stop offset="0.94" stop-color="#002932"/><stop offset="0.96" stop-color="#004858"/><stop offset="0.99" stop-color="#006f89"/><stop offset="1" stop-color="#008bab"/></radialGradient></defs><g class="cls-1"><g id="Слой_1" data-name="Слой 1"><rect class="cls-2" width="512" height="512"/><circle class="cls-3" cx="259.09" cy="243.59" r="89.44"/><path class="cls-4" d="M348.48,243.6A89.31,89.31,0,0,1,259.06,333a92.69,92.69,0,0,1-11.73-.75,87.62,87.62,0,0,1-10.4-2A89,89,0,0,1,214.25,321a87.86,87.86,0,0,1-12.59-8.84A89.8,89.8,0,0,1,179.24,284a88.7,88.7,0,0,1-7.67-21.83.11.11,0,0,1,0-.07,90.69,90.69,0,0,1-1.9-18.47,89.43,89.43,0,0,1,89.41-89.45c2,0,3.88.06,5.81.19a89.29,89.29,0,0,1,28.78,6.76c1.57.66,3.1,1.36,4.63,2.1a88.56,88.56,0,0,1,18,11.7c1.85,1.53,3.64,3.16,5.36,4.84.62.6,1.23,1.22,1.83,1.85A89.05,89.05,0,0,1,348.48,243.6Z"/><ellipse class="cls-5" cx="206.7" cy="205.26" rx="19.1" ry="5.49" transform="translate(-77.97 267.06) rotate(-57.05)"/></g></g></svg>