<svg xmlns="http://www.w3.org/2000/svg" viewBox="0 0 18.67 13.8"><defs><style>.cls-1{fill:#ff6768;}</style></defs><g id="Слой_2" data-name="Слой 2"><g id="Слой_1-2" data-name="Слой 1"><path class="cls-1" d="M7.56,1.06C7.42.65,7.27.25,7.27.24A.39.39,0,0,0,6.87,0a9,9,0,0,0-4.3,1.55C1.71,2.34,0,7,0,11a.46.46,0,0,0,.05.2c1.18,2.07,4.4,2.61,5.14,2.64h0a.4.4,0,0,0,.33-.17l.79-1.07c-1.31-.2-1.55-.46-1.6-.5-.3-.22-.52-.53-.25-.91a.76.76,0,0,1,1-.23,7.82,7.82,0,0,0,3.9.65A9.69,9.69,0,0,0,13.17,11a.74.74,0,0,1,1,.18.6.6,0,0,1-.22.9,5.06,5.06,0,0,1-1.59.48l.78,1.08a.4.4,0,0,0,.33.17h0c.73,0,3.95-.57,5.13-2.64a.36.36,0,0,0,.06-.2c0-4-1.71-8.62-2.59-9.43A9,9,0,0,0,11.8,0a.4.4,0,0,0-.4.24s-.15.42-.29.82A15.55,15.55,0,0,0,9.33.9,15.54,15.54,0,0,0,7.56,1.06ZM6.67,9.57c-.74,0-1.34-.89-1.34-2s.6-2,1.34-2S8,6.48,8,7.58,7.4,9.57,6.67,9.57Zm5.33,0c-.74,0-1.33-.9-1.33-2s.59-2,1.33-2,1.33.89,1.33,2S12.74,9.57,12,9.57Z"/></g></g></svg>