<svg xmlns="http://www.w3.org/2000/svg" viewBox="0 0 15.61 15.61"><defs><style>.cls-1{fill:#ff6768;}</style></defs><g id="Слой_2" data-name="Слой 2"><g id="Слой_1-2" data-name="Слой 1"><path class="cls-1" d="M7.81,5.2a2.61,2.61,0,1,0,2.6,2.61A2.61,2.61,0,0,0,7.81,5.2Zm7.8,2.61c0-1.08,0-2.15,0-3.23A4.62,4.62,0,0,0,14.3,1.31,4.64,4.64,0,0,0,11,.05C10,0,8.88,0,7.81,0S5.66,0,4.58.05A4.66,4.66,0,0,0,1.31,1.31,4.66,4.66,0,0,0,.05,4.58C0,5.66,0,6.73,0,7.81S0,10,.05,11A4.64,4.64,0,0,0,1.31,14.3a4.62,4.62,0,0,0,3.27,1.26c1.08.06,2.15,0,3.23,0s2.14,0,3.22,0A4.6,4.6,0,0,0,14.3,14.3,4.6,4.6,0,0,0,15.56,11C15.63,10,15.61,8.89,15.61,7.81Zm-7.8,4a4,4,0,1,1,4-4A4,4,0,0,1,7.81,11.81ZM12,4.57a.94.94,0,1,1,.93-.93.92.92,0,0,1-.07.36,1.21,1.21,0,0,1-.2.3.92.92,0,0,1-.31.2A.84.84,0,0,1,12,4.57Z"/></g></g></svg>