<svg xmlns="http://www.w3.org/2000/svg" viewBox="0 0 20 20"><defs><style>.cls-1{fill:#ff6768;}</style></defs><g id="Слой_2" data-name="Слой 2"><g id="Слой_1-2" data-name="Слой 1"><path class="cls-1" d="M10,0A10,10,0,1,0,20,10,10,10,0,0,0,10,0ZM4.93,10.34,5,10.27,7.58,6.2a.08.08,0,0,1,.15,0,5.56,5.56,0,0,1,.64,2.94,4.87,4.87,0,0,1-.51,1.12l-.1.16a.09.09,0,0,1-.08,0H5A.09.09,0,0,1,4.93,10.34Zm11.6,1.4a.08.08,0,0,1-.06.08,3.17,3.17,0,0,0-1.17.8c-.74,1-1.29,2.48-2.54,2.48H7.54A3.36,3.36,0,0,1,4.2,11.74v-.06a.09.09,0,0,1,.09-.09h2.9a.1.1,0,0,1,.1.11,1,1,0,0,0,.1.56,1,1,0,0,0,.92.57H9.75V11.71H8.33a.1.1,0,0,1-.08-.15l.05-.07c.14-.2.33-.49.52-.83a6,6,0,0,0,.36-.72.69.69,0,0,0,.05-.13c0-.08.06-.15.08-.22a1.8,1.8,0,0,0,0-.19,2.84,2.84,0,0,0,.07-.66,2.44,2.44,0,0,0,0-.27,2.85,2.85,0,0,0,0-.29,2.34,2.34,0,0,0,0-.26c0-.13,0-.26-.08-.39v0c0-.09,0-.18-.08-.27q-.12-.42-.27-.81l-.12-.29c-.06-.15-.12-.28-.18-.41l-.07-.16-.09-.18-.06-.13-.18-.32a.06.06,0,0,1,.07-.09l1.1.3h0l.14,0,.16,0h.06V4.57A.57.57,0,0,1,10.31,4a.53.53,0,0,1,.4.17.57.57,0,0,1,.17.4v1l.12,0,0,0,.12.09.14.11a4.94,4.94,0,0,1,.37.33l.11.09a7.89,7.89,0,0,1,.57.58c.05.06.11.12.16.19l.16.19.19.27a1.1,1.1,0,0,1,.09.14c.08.11.15.24.22.36l.08.18a2.34,2.34,0,0,1,.16.49.61.61,0,0,1,0,.11h0s0,.1,0,.16a1.75,1.75,0,0,1,0,.51l-.06.21c0,.07,0,.15-.08.22a3.23,3.23,0,0,1-.22.41,1.4,1.4,0,0,1-.1.16l-.1.15-.15.18a1.09,1.09,0,0,1-.13.17l-.21.24-.13.14-.13.13-.17.17-.12.1a.06.06,0,0,1-.06,0h-.87v1.12H12a1,1,0,0,0,.67-.25,8.7,8.7,0,0,0,.68-.67l0,0,3-.88a.09.09,0,0,1,.12.08Z"/></g></g></svg>