<svg xmlns="http://www.w3.org/2000/svg" viewBox="0 0 20 20"><defs><style>.cls-1{fill:#ff6768;}</style></defs><g id="Слой_2" data-name="Слой 2"><g id="Слой_1-2" data-name="Слой 1"><path class="cls-1" d="M10,0A10,10,0,1,1,0,10,10,10,0,0,1,10,0Zm5,9c0-.67,0-1.35,0-2a2.77,2.77,0,0,1-2-.83,2.76,2.76,0,0,1-.72-2.11l-2,0c-.07,4-.13,6.92-.11,8a1.74,1.74,0,0,1-.36,1.21,1.63,1.63,0,0,1-1.09.45,1.57,1.57,0,0,1-1.25-.43,1.5,1.5,0,0,1-.36-1.15A1.76,1.76,0,0,1,7.64,11a1.69,1.69,0,0,1,.89-.41h.66c0-.7,0-1.41,0-2.12L8,8.43A3.56,3.56,0,0,0,5.87,9.55,3.73,3.73,0,0,0,5,12.32a3.8,3.8,0,0,0,1,2.4,3.76,3.76,0,0,0,2.51,1.17,3.6,3.6,0,0,0,2.81-1,3.66,3.66,0,0,0,1-2.57c0-1.39,0-2.77,0-4.15a4.23,4.23,0,0,0,1.29.7A4,4,0,0,0,15,9Z"/></g></g></svg>