<svg xmlns="http://www.w3.org/2000/svg" viewBox="0 0 17.33 14.09"><defs><style>.cls-1{fill:#ff6768;}</style></defs><g id="Слой_2" data-name="Слой 2"><g id="Слой_1-2" data-name="Слой 1"><path class="cls-1" d="M17.33,1.67a7.24,7.24,0,0,1-2,.56,3.52,3.52,0,0,0,1.56-2,7,7,0,0,1-2.25.86A3.57,3.57,0,0,0,8.44,3.56a3.66,3.66,0,0,0,.1.81A10.1,10.1,0,0,1,1.21.65,3.57,3.57,0,0,0,2.31,5.4,3.49,3.49,0,0,1,.7,5V5A3.54,3.54,0,0,0,3.55,8.48a3.24,3.24,0,0,1-.94.13,3.71,3.71,0,0,1-.67-.06A3.58,3.58,0,0,0,5.27,11,7.16,7.16,0,0,1,.85,12.54a7.92,7.92,0,0,1-.85,0,10,10,0,0,0,5.45,1.6A10.05,10.05,0,0,0,15.57,4c0-.16,0-.31,0-.46A7.2,7.2,0,0,0,17.33,1.67Z"/></g></g></svg>