<svg xmlns="http://www.w3.org/2000/svg" xmlns:xlink="http://www.w3.org/1999/xlink" viewBox="0 0 1400 400"><defs><style>.cls-1{mix-blend-mode:color-dodge;fill:url(#Безымянный_градиент_153);}.cls-2{isolation:isolate;}.cls-3{fill:#17223b;}.cls-4{fill:#fd226e;}.cls-5{fill:url(#Новый_образец_градиентной_залив);}.cls-6{fill:url(#linear-gradient);}.cls-7{fill:#ffc05a;}.cls-8{fill:url(#linear-gradient-2);}.cls-9{fill:url(#linear-gradient-3);}.cls-10{fill:url(#Безымянный_градиент_46);}.cls-11,.cls-15{fill-rule:evenodd;opacity:0.92;}.cls-11,.cls-13,.cls-15{mix-blend-mode:screen;}.cls-11{fill:url(#radial-gradient);}.cls-12{fill:#fff;}.cls-13{fill:url(#radial-gradient-2);}.cls-14{fill:url(#Безымянный_градиент_7);}.cls-15{fill:url(#radial-gradient-3);}</style><radialGradient id="Безымянный_градиент_153" cx="9.58" cy="9.58" r="9.58" gradientUnits="userSpaceOnUse"><stop offset="0" stop-color="#fff"/><stop offset="1"/></radialGradient><linearGradient id="Новый_образец_градиентной_залив" x1="-370.75" y1="652.69" x2="-370.75" y2="465.08" gradientTransform="translate(1038.1 169.75) rotate(58.88)" gradientUnits="userSpaceOnUse"><stop offset="0" stop-color="#fd226e" stop-opacity="0.5"/><stop offset="0.4" stop-color="#fd226e" stop-opacity="0.29"/><stop offset="1" stop-color="#fd226e" stop-opacity="0"/></linearGradient><linearGradient id="linear-gradient" x1="511.42" y1="124.06" x2="511.42" y2="75.01" gradientTransform="translate(36.23 -114.12) rotate(13.2)" gradientUnits="userSpaceOnUse"><stop offset="0" stop-color="#045cbb" stop-opacity="0.5"/><stop offset="0.2" stop-color="#045cbb" stop-opacity="0.4"/><stop offset="1" stop-color="#045cbb" stop-opacity="0"/></linearGradient><linearGradient id="linear-gradient-2" x1="-312.84" y1="-92.41" x2="-312.84" y2="-254.37" gradientTransform="translate(1209.55 472.08) rotate(48.3)" gradientUnits="userSpaceOnUse"><stop offset="0" stop-color="#ffc057" stop-opacity="0.5"/><stop offset="0.41" stop-color="#ffc057" stop-opacity="0.29"/><stop offset="1" stop-color="#ffc057" stop-opacity="0"/></linearGradient><linearGradient id="linear-gradient-3" x1="373.46" y1="338.68" x2="373.46" y2="252.44" gradientTransform="translate(31.99 -66) rotate(7.53)" xlink:href="#linear-gradient-2"/><radialGradient id="Безымянный_градиент_46" cx="1187.43" cy="217.15" r="155.74" gradientUnits="userSpaceOnUse"><stop offset="0.01" stop-color="#ce8900"/><stop offset="0.24" stop-color="#ce8700"/><stop offset="0.35" stop-color="#ce7f00"/><stop offset="0.44" stop-color="#cd7200"/><stop offset="0.52" stop-color="#cc5f00"/><stop offset="0.59" stop-color="#cc4700"/><stop offset="0.65" stop-color="#ca2900"/><stop offset="0.71" stop-color="#c90600"/><stop offset="0.72" stop-color="#c90000"/><stop offset="0.74" stop-color="#c60507"/><stop offset="0.78" stop-color="#bd141a"/><stop offset="0.82" stop-color="#ae2b3a"/><stop offset="0.86" stop-color="#9a4d66"/><stop offset="0.91" stop-color="#80779e"/><stop offset="0.96" stop-color="#61aae2"/><stop offset="0.98" stop-color="#54c0ff"/></radialGradient><radialGradient id="radial-gradient" cx="1275.77" cy="200.01" r="70.26" gradientTransform="translate(-667.24 -54.04) scale(1.47 1.45)" gradientUnits="userSpaceOnUse"><stop offset="0.89"/><stop offset="0.9" stop-color="#000506"/><stop offset="0.92" stop-color="#001217"/><stop offset="0.94" stop-color="#002932"/><stop offset="0.96" stop-color="#004858"/><stop offset="0.99" stop-color="#006f89"/><stop offset="1" stop-color="#008bab"/></radialGradient><radialGradient id="radial-gradient-2" cx="1181.04" cy="1290.24" r="188.54" gradientTransform="translate(25.28 -143.46) scale(1 0.3)" gradientUnits="userSpaceOnUse"><stop offset="0.01" stop-opacity="0"/><stop offset="0.68" stop-color="#03050b" stop-opacity="0.13"/><stop offset="0.78" stop-color="#0c1026" stop-opacity="0.44"/><stop offset="0.93" stop-color="#171f49" stop-opacity="0.84"/><stop offset="1" stop-color="#1b2557"/></radialGradient><radialGradient id="Безымянный_градиент_7" cx="144.57" cy="128.68" r="96.81" gradientUnits="userSpaceOnUse"><stop offset="0.01" stop-color="#009991"/><stop offset="0.28" stop-color="#009791"/><stop offset="0.41" stop-color="#008f91"/><stop offset="0.52" stop-color="#008292"/><stop offset="0.61" stop-color="#006f93"/><stop offset="0.69" stop-color="#005794"/><stop offset="0.72" stop-color="#004d94"/><stop offset="0.74" stop-color="#074d97"/><stop offset="0.78" stop-color="#1a4ea0"/><stop offset="0.83" stop-color="#3a4fae"/><stop offset="0.88" stop-color="#6650c1"/><stop offset="0.93" stop-color="#9e52da"/><stop offset="0.99" stop-color="#e254f8"/><stop offset="1" stop-color="#f154ff"/></radialGradient><radialGradient id="radial-gradient-3" cx="159.93" cy="151.44" r="70.26" gradientTransform="translate(8.75 4.28) scale(0.95 0.95)" xlink:href="#radial-gradient"/><symbol id="Звезда" data-name="Звезда" viewBox="0 0 19.17 19.17"><circle class="cls-1" cx="9.58" cy="9.58" r="9.58"/></symbol></defs><g class="cls-2"><g id="Слой_12" data-name="Слой 12"><g id="Слой_2" data-name="Слой 2"><rect class="cls-3" width="1400" height="400"/></g><g id="Слой_9" data-name="Слой 9"><circle class="cls-4" cx="287.72" cy="189.65" r="15.29"/><polygon class="cls-5" points="279.79 176.52 448.34 92.69 295.65 202.78 279.79 176.52"/><path class="cls-6" d="M541.61,81.43l-56.85,27.95v0a5.14,5.14,0,1,0,5.28,8.83h0v0Z"/><circle class="cls-7" cx="1070.46" cy="177.02" r="13.2"/><polygon class="cls-8" points="1061.65 167.14 1191.39 69.29 1079.27 186.91 1061.65 167.14"/><path class="cls-9" d="M416.56,239.47,315.68,296.53l0,0h0a9.41,9.41,0,0,0,10.57,15.58l0,0Z"/></g><g id="Слой_10" data-name="Слой 10"><circle class="cls-10" cx="1205.82" cy="237.07" r="103.15"/><path class="cls-11" d="M1309,235.7a100.79,100.79,0,0,1-32.9,74.5,103.42,103.42,0,0,1-70.26,27.26,107.61,107.61,0,0,1-13.52-.86,101.24,101.24,0,0,1-12-2.27,103.69,103.69,0,0,1-26.17-10.57,103.4,103.4,0,0,1-40.39-42.13,99.76,99.76,0,0,1-8.84-24.83.15.15,0,0,1,0-.09,101.06,101.06,0,0,1,29-94,103.5,103.5,0,0,1,71.9-28.81c2.26,0,4.48.06,6.7.21a104.12,104.12,0,0,1,33.21,7.7c1.8.75,3.57,1.54,5.33,2.38a102.07,102.07,0,0,1,20.79,13.32c2.14,1.74,4.21,3.59,6.19,5.5.72.69,1.41,1.39,2.11,2.1A100.69,100.69,0,0,1,1309,235.7Z"/><ellipse class="cls-12" cx="1152.78" cy="185.38" rx="18.45" ry="5.3" transform="matrix(0.54, -0.84, 0.84, 0.54, 370.17, 1051.87)"/><ellipse class="cls-13" cx="1205.82" cy="248.71" rx="183.46" ry="38.54"/></g><g id="Слой_11" data-name="Слой 11"><use width="19.17" height="19.17" transform="translate(1.79 3.4) scale(1.2)" xlink:href="#Звезда"/><use width="19.17" height="19.17" transform="translate(-3.04 77.2) scale(1.34)" xlink:href="#Звезда"/><use width="19.17" height="19.17" transform="translate(94.64 34.68) scale(1.55)" xlink:href="#Звезда"/><use width="19.17" height="19.17" transform="translate(188.08 4.65) scale(1.12)" xlink:href="#Звезда"/><use width="19.17" height="19.17" transform="translate(223.61 93.05) scale(1.36)" xlink:href="#Звезда"/><use width="19.17" height="19.17" transform="translate(293.81 50) scale(1.32)" xlink:href="#Звезда"/><use width="19.17" height="19.17" transform="translate(382 12.8) scale(1.36)" xlink:href="#Звезда"/><use width="19.17" height="19.17" transform="translate(347.31 88.23) scale(1.35)" xlink:href="#Звезда"/><use width="19.17" height="19.17" transform="translate(387.96 168.88) scale(1.07)" xlink:href="#Звезда"/><use width="19.17" height="19.17" transform="translate(331 245.62)" xlink:href="#Звезда"/><use width="19.17" height="19.17" transform="translate(237.54 219.45) scale(1.14)" xlink:href="#Звезда"/><use width="19.17" height="19.17" transform="translate(156.98 224.93) scale(1.29)" xlink:href="#Звезда"/><use width="19.17" height="19.17" transform="translate(24.21 202.17) scale(1.13)" xlink:href="#Звезда"/><use width="19.17" height="19.17" transform="translate(96.65 259.97) scale(1.16)" xlink:href="#Звезда"/><use width="19.17" height="19.17" transform="translate(167.63 266.54) scale(1.14)" xlink:href="#Звезда"/><use width="19.17" height="19.17" transform="translate(117.6 212.95) scale(1.34)" xlink:href="#Звезда"/><use width="19.17" height="19.17" transform="translate(1350.19 40.21) scale(1.21)" xlink:href="#Звезда"/><use width="19.17" height="19.17" transform="translate(1354.55 158.27) scale(1.48)" xlink:href="#Звезда"/><use width="19.17" height="19.17" transform="translate(1298.14 84.22) scale(1.38)" xlink:href="#Звезда"/><use width="19.17" height="19.17" transform="translate(1230.64 32.59) scale(1.35)" xlink:href="#Звезда"/><use width="19.17" height="19.17" transform="translate(1210.8 96.9) scale(1.58)" xlink:href="#Звезда"/><use width="19.17" height="19.17" transform="translate(1104.41 24.29) scale(1.38)" xlink:href="#Звезда"/><use width="19.17" height="19.17" transform="translate(1029.1 106.87) scale(1.15)" xlink:href="#Звезда"/><use width="19.17" height="19.17" transform="translate(893.27 24.16) scale(1.19)" xlink:href="#Звезда"/><use width="19.17" height="19.17" transform="translate(970.7 51.16) scale(1.04)" xlink:href="#Звезда"/><use width="19.17" height="19.17" transform="translate(937.26 126.11) scale(1.08)" xlink:href="#Звезда"/><use width="19.17" height="19.17" transform="translate(983.18 206.75) scale(1.13)" xlink:href="#Звезда"/><use width="19.17" height="19.17" transform="translate(1345.63 354.25) scale(1.41)" xlink:href="#Звезда"/><use width="19.17" height="19.17" transform="translate(1105.09 371.54) scale(1.01)" xlink:href="#Звезда"/><use width="19.17" height="19.17" transform="translate(49.92 338) scale(1.15)" xlink:href="#Звезда"/><use width="19.17" height="19.17" transform="translate(158.08 341.6) scale(1.03)" xlink:href="#Звезда"/><use width="19.17" height="19.17" transform="translate(243.83 314.88)" xlink:href="#Звезда"/><use width="19.17" height="19.17" transform="translate(315.97 359.39) scale(1.06)" xlink:href="#Звезда"/><use width="19.17" height="19.17" transform="translate(455.59 364.41) scale(1.35)" xlink:href="#Звезда"/><use width="19.17" height="19.17" transform="translate(934.45 323.78) scale(1.08)" xlink:href="#Звезда"/><use width="19.17" height="19.17" transform="translate(403.07 274.54) scale(1.09)" xlink:href="#Звезда"/><circle class="cls-14" cx="160.23" cy="147.74" r="66.55"/><path class="cls-15" d="M226.76,147.75a66.48,66.48,0,0,1-66.55,66.54,67.82,67.82,0,0,1-8.72-.56,64.11,64.11,0,0,1-7.74-1.49,66.53,66.53,0,0,1-48.64-50.7s0,0,0,0a67,67,0,0,1-1.42-13.74,66.54,66.54,0,0,1,66.53-66.56c1.46,0,2.89,0,4.33.14a66.26,66.26,0,0,1,21.42,5c1.16.49,2.3,1,3.44,1.56a65.78,65.78,0,0,1,13.41,8.71c1.38,1.13,2.71,2.34,4,3.59.46.45.91.91,1.36,1.38A66.28,66.28,0,0,1,226.76,147.75Z"/><ellipse class="cls-12" cx="121.26" cy="119.21" rx="14.21" ry="4.09" transform="translate(-44.74 156.11) rotate(-57.05)"/></g></g></g></svg>